<?xml version="1.0" encoding="utf-8"?>
<!-- Generator: Adobe Illustrator 22.0.1, SVG Export Plug-In . SVG Version: 6.00 Build 0)  -->
<svg version="1.1" id="Outlined" xmlns="http://www.w3.org/2000/svg" xmlns:xlink="http://www.w3.org/1999/xlink" x="0px" y="0px"
	 viewBox="0 0 28 28" style="enable-background:new 0 0 28 28;" xml:space="preserve">
<style type="text/css">
	.st0{fill:#007799;}
</style>
<g id="Fill">
	<path class="st0" d="M14,0C6.3,0,0,6.3,0,14s6.3,14,14,14s14-6.3,14-14S21.7,0,14,0z M14,26C7.4,26,2,20.6,2,14S7.4,2,14,2
		s12,5.4,12,12S20.6,26,14,26z"/>
	<path class="st0" d="M12.6,10.6l-5.3,5.3l1.4,1.4L14,12l5.3,5.3l1.4-1.4l-5.3-5.3C14.6,9.8,13.4,9.8,12.6,10.6z"/>
</g>
</svg>
